<svg xmlns="http://www.w3.org/2000/svg" width="240.66" height="80.832" viewBox="0 0 240.66 80.832"><title>btn_ticket_txt_en</title><rect width="240.66" height="80.832" style="fill:none"/><path d="M52.8,31.669a12.622,12.622,0,0,1,2.637.255,5.7,5.7,0,0,1,2.041.836A3.9,3.9,0,0,1,58.8,34.3a5.427,5.427,0,0,1,.468,2.382,4.436,4.436,0,0,1-.694,2.552,5.04,5.04,0,0,1-2.056,1.672A4.867,4.867,0,0,1,59.308,42.8a6.193,6.193,0,0,1,.326,5.9,5.178,5.178,0,0,1-1.6,1.828,7.082,7.082,0,0,1-2.3,1.049,10.36,10.36,0,0,1-2.65.34h-9.81V31.669Zm-.566,8.192a3.194,3.194,0,0,0,1.956-.566,2.143,2.143,0,0,0,.766-1.843,2.35,2.35,0,0,0-.256-1.163,1.9,1.9,0,0,0-.68-.708,2.888,2.888,0,0,0-.979-.354,6.46,6.46,0,0,0-1.148-.1H47.727v4.734Zm.255,8.591a5.94,5.94,0,0,0,1.247-.128,3.035,3.035,0,0,0,1.049-.426,2.13,2.13,0,0,0,.724-.807,2.8,2.8,0,0,0,.27-1.3,2.621,2.621,0,0,0-.879-2.226,3.753,3.753,0,0,0-2.325-.666H47.727v5.557Z" style="fill:#fff"/><path d="M72.731,51.91V49.869h-.085a4.534,4.534,0,0,1-1.984,1.844,5.873,5.873,0,0,1-2.5.566,7.044,7.044,0,0,1-2.65-.426,3.81,3.81,0,0,1-1.63-1.205,4.714,4.714,0,0,1-.837-1.9,11.85,11.85,0,0,1-.24-2.48V37.254h4.025v8.277a5.125,5.125,0,0,0,.567,2.708,2.2,2.2,0,0,0,2.013.894,2.788,2.788,0,0,0,2.381-.979,5.439,5.439,0,0,0,.737-3.218V37.254h4.025V51.91Z" style="fill:#fff"/><path d="M85.035,56.276a5.834,5.834,0,0,1-3.231.766q-.624,0-1.233-.042t-1.233-.1V53.584L80.5,53.7a8.354,8.354,0,0,0,1.19.027,1.569,1.569,0,0,0,1.177-.623,2.013,2.013,0,0,0,.383-1.191A2.42,2.42,0,0,0,83.079,51l-5.131-13.75h4.28l3.317,10.035H85.6l3.2-10.035h4.168L86.849,53.725A4.954,4.954,0,0,1,85.035,56.276Z" style="fill:#fff"/><path d="M101.052,35.411V31.669h16.585v3.742h-6.066v16.5H107.12v-16.5Z" style="fill:#fff"/><path d="M119.65,34.986V31.669h4.025v3.317Zm4.025,2.268V51.91H119.65V37.254Z" style="fill:#fff"/><path d="M133.853,39.891a2.828,2.828,0,0,0-1.616.439,3.486,3.486,0,0,0-1.062,1.134,4.9,4.9,0,0,0-.581,1.53,8.329,8.329,0,0,0-.171,1.658,7.982,7.982,0,0,0,.171,1.617,4.98,4.98,0,0,0,.553,1.488,3.175,3.175,0,0,0,1.034,1.091,2.838,2.838,0,0,0,1.588.425,2.952,2.952,0,0,0,2.226-.807,3.822,3.822,0,0,0,.978-2.17h3.885a6.643,6.643,0,0,1-2.269,4.451,7.315,7.315,0,0,1-4.791,1.531,8.03,8.03,0,0,1-3.02-.553,6.691,6.691,0,0,1-2.339-1.545,7.036,7.036,0,0,1-1.5-2.367,8.208,8.208,0,0,1-.539-3.02,9.755,9.755,0,0,1,.5-3.161,7.1,7.1,0,0,1,1.46-2.522,6.684,6.684,0,0,1,2.354-1.659,7.983,7.983,0,0,1,3.175-.595,9.2,9.2,0,0,1,2.509.34,6.7,6.7,0,0,1,2.155,1.035,5.349,5.349,0,0,1,2.226,4.182H136.83A2.7,2.7,0,0,0,133.853,39.891Z" style="fill:#fff"/><path d="M147.517,31.669V42.527l5.075-5.273h4.763l-5.528,5.387,6.152,9.27H153.1l-4.025-6.549-1.56,1.5V51.91h-4.025V31.669Z" style="fill:#fff"/><path d="M163.7,48.395a4.128,4.128,0,0,0,4.706.27,2.526,2.526,0,0,0,1.077-1.289h3.544a6.717,6.717,0,0,1-2.608,3.77,7.669,7.669,0,0,1-4.252,1.135,8.374,8.374,0,0,1-3.118-.553,6.474,6.474,0,0,1-2.354-1.574,7.069,7.069,0,0,1-1.488-2.437,8.927,8.927,0,0,1-.524-3.119,8.56,8.56,0,0,1,.538-3.061,7.085,7.085,0,0,1,3.9-4.083,7.583,7.583,0,0,1,3.048-.595,6.962,6.962,0,0,1,3.26.723,6.5,6.5,0,0,1,2.282,1.941A7.977,7.977,0,0,1,173,42.3a10.36,10.36,0,0,1,.284,3.261H162.712A4.067,4.067,0,0,0,163.7,48.395Zm4.551-7.711a2.832,2.832,0,0,0-2.2-.793,3.494,3.494,0,0,0-1.6.326,3.047,3.047,0,0,0-1.021.808,2.952,2.952,0,0,0-.538,1.021,4.561,4.561,0,0,0-.185.964h6.549A4.655,4.655,0,0,0,168.255,40.684Z" style="fill:#fff"/><path d="M183.72,37.254v2.693h-2.948v7.258a1.973,1.973,0,0,0,.34,1.36,1.973,1.973,0,0,0,1.361.341c.227,0,.443-.01.652-.029a5.481,5.481,0,0,0,.595-.085V51.91a9.5,9.5,0,0,1-1.134.113q-.624.029-1.219.029a11.768,11.768,0,0,1-1.772-.128,4.182,4.182,0,0,1-1.474-.5,2.613,2.613,0,0,1-1.007-1.049,3.745,3.745,0,0,1-.368-1.786V39.947h-2.438V37.254h2.438V32.859h4.025v4.395Z" style="fill:#fff"/><path d="M189.036,48.268a2.348,2.348,0,0,0,.694.766,2.961,2.961,0,0,0,.979.439,4.589,4.589,0,0,0,1.147.142,4.291,4.291,0,0,0,.894-.1,3.064,3.064,0,0,0,.851-.312,1.93,1.93,0,0,0,.638-.566,1.492,1.492,0,0,0,.255-.894q0-.907-1.205-1.36a24.013,24.013,0,0,0-3.359-.908q-.879-.2-1.715-.467a5.862,5.862,0,0,1-1.488-.709,3.435,3.435,0,0,1-1.049-1.105,3.127,3.127,0,0,1-.4-1.631,4.415,4.415,0,0,1,.553-2.324,4.076,4.076,0,0,1,1.46-1.432,6.4,6.4,0,0,1,2.042-.737,12.586,12.586,0,0,1,2.324-.212,11.6,11.6,0,0,1,2.311.227,6.094,6.094,0,0,1,2,.766,4.6,4.6,0,0,1,1.46,1.432,4.818,4.818,0,0,1,.694,2.254h-3.827a1.762,1.762,0,0,0-.879-1.574,4.026,4.026,0,0,0-1.871-.411,6.972,6.972,0,0,0-.737.043,2.446,2.446,0,0,0-.723.185,1.467,1.467,0,0,0-.553.41,1.087,1.087,0,0,0-.227.723,1.1,1.1,0,0,0,.4.879,3.025,3.025,0,0,0,1.035.553,12.671,12.671,0,0,0,1.46.383q.822.171,1.672.369a17.038,17.038,0,0,1,1.716.482,5.692,5.692,0,0,1,1.488.751,3.632,3.632,0,0,1,1.049,1.162,3.412,3.412,0,0,1,.4,1.716,4.448,4.448,0,0,1-2.1,4,6.189,6.189,0,0,1-2.141.837,12.429,12.429,0,0,1-2.452.241,12.075,12.075,0,0,1-2.494-.256,6.58,6.58,0,0,1-2.169-.85A4.854,4.854,0,0,1,185.6,49.6a4.917,4.917,0,0,1-.666-2.451h3.827A2.2,2.2,0,0,0,189.036,48.268Z" style="fill:#fff"/></svg>