<svg xmlns="http://www.w3.org/2000/svg" width="240.66" height="80.832" viewBox="0 0 240.66 80.832"><title>btn_ticket_txt</title><rect width="240.66" height="80.832" style="fill:none"/><path d="M47.436,31.789c-.324.081-.324.081-2.269.729a33.379,33.379,0,0,1-4.51,1.107c-.027,3.646-.027,3.646-.081,4.564H46.3A16.737,16.737,0,0,0,49.6,38v3.241a24.6,24.6,0,0,0-3.241-.136H40.387A14.16,14.16,0,0,1,38.578,47a13.971,13.971,0,0,1-4.4,4.294,16.831,16.831,0,0,1-2.512,1.351,8.755,8.755,0,0,0-2.35-2.863A12.467,12.467,0,0,0,33.5,47.508a8.621,8.621,0,0,0,3.105-4.592,15.32,15.32,0,0,0,.3-1.81H30.232a24.6,24.6,0,0,0-3.241.136V38a16.743,16.743,0,0,0,3.3.189H37.2c.054-1.135.054-2.188.054-4.079a60.514,60.514,0,0,1-7.481.622,11.354,11.354,0,0,0-1-2.917c.837.054,1.27.054,1.674.054A46.617,46.617,0,0,0,42.007,30.3a14.192,14.192,0,0,0,3.269-1.27Z" style="fill:#fff"/><path d="M73.58,36.732c-.027.271-.027.271-.055.7-.351,4.592-1.351,7.454-3.483,9.993a18.579,18.579,0,0,1-7.022,4.942A8.028,8.028,0,0,0,60.778,49.4a15.239,15.239,0,0,0,5.482-3.106c2.457-2.187,3.592-4.969,3.862-9.561H63.64a22.279,22.279,0,0,1-4.483,5.482A8.415,8.415,0,0,0,56.4,40.081a20.056,20.056,0,0,0,5.7-7.428,13.861,13.861,0,0,0,1.351-3.862l3.511.838c-.216.432-.216.432-1.026,2.322-.216.486-.486,1.08-.811,1.756.783-.027.783-.027,11.8-.027a21.688,21.688,0,0,0,3.4-.162V36.84a9.664,9.664,0,0,0-1.647-.081c-.352,0-.945,0-1.783-.027Z" style="fill:#fff"/><path d="M90.057,35.436a31.2,31.2,0,0,1,2.646,6.4l-3.052.973a27.009,27.009,0,0,0-2.458-6.536Zm15.5.188A5.685,5.685,0,0,0,105.181,37,23.053,23.053,0,0,1,101.454,46c-2,2.729-4.24,4.483-8.237,6.509a9.841,9.841,0,0,0-2.16-2.674,17.489,17.489,0,0,0,4.591-2.484c3.16-2.3,4.97-5.051,6.131-9.372a11.96,11.96,0,0,0,.486-3.105Zm-9.75-1.3a26.511,26.511,0,0,1,2.62,6.212l-3,.945a29.66,29.66,0,0,0-2.458-6.348Z" style="fill:#fff"/><path d="M115.556,52.181a18.228,18.228,0,0,0,.162-3.025V31.843a17.319,17.319,0,0,0-.162-2.755h3.7a18.053,18.053,0,0,0-.108,2.836v5.023a79.4,79.4,0,0,1,12.262,5.7l-1.891,3.187a63.892,63.892,0,0,0-9.561-5.158,8.716,8.716,0,0,1-.918-.459,13.948,13.948,0,0,1,.107,1.836v7.131a29.673,29.673,0,0,0,.108,3Z" style="fill:#fff"/><path d="M139.711,31.98a31.1,31.1,0,0,0,5.968.334,10.16,10.16,0,0,0,1.029-3.189l3.37.36a19.612,19.612,0,0,0-1.029,2.314c-.128.283-.18.36-.231.464.206-.026.206-.026,1.621-.1a34.772,34.772,0,0,0,6.74-.874l.18,2.933c-.72.051-.72.051-2.032.206-1.878.231-5.146.437-7.743.514a13.3,13.3,0,0,1-2.367,3.422l.025.052c.181-.129.181-.129.515-.386a6.218,6.218,0,0,1,3.628-1.158,3.385,3.385,0,0,1,3.679,2.728q2.971-1.081,3.936-1.39a8.05,8.05,0,0,0,1.9-.771l1.209,2.958a22.678,22.678,0,0,0-2.855.7q-.541.154-3.859,1.312v.283c.026.669.026.669.026,1.029v1.028c-.026.438-.026.669-.026.85a10.689,10.689,0,0,0,.077,1.363l-2.983.077a20.423,20.423,0,0,0,.154-2.984v-.617a15.636,15.636,0,0,0-2.47,1.338,2.708,2.708,0,0,0-1.338,2.109c0,1.338,1.234,1.878,4.348,1.878a22.363,22.363,0,0,0,7.563-1.08l.257,3.318a7.564,7.564,0,0,0-1.183.1,46.636,46.636,0,0,1-6.586.463c-2.728,0-4.426-.309-5.737-1.08a3.729,3.729,0,0,1-1.878-3.318,4.1,4.1,0,0,1,1.132-2.855c1.157-1.441,2.624-2.419,5.531-3.628a1.413,1.413,0,0,0-1.569-1.39c-1.492,0-3.293.9-5.274,2.65a11.582,11.582,0,0,0-2.238,2.341l-2.341-2.315a15.758,15.758,0,0,0,2.315-2.289,34.139,34.139,0,0,0,3.087-4.4,1.289,1.289,0,0,1,.206-.335c-.1,0-.437.026-.437.026-.411,0-2.675-.052-3.241-.052-.489-.025-.489-.025-.721-.025a2.871,2.871,0,0,0-.411.025Z" style="fill:#fff"/><path d="M172.918,48.341c-1.106,0-1.878.026-2.778.1a27.78,27.78,0,0,0,.128-3.036V39.491a27.856,27.856,0,0,0-.128-2.907c.8.052,1.338.077,2.7.077h13.043c1.492,0,2.109-.025,2.83-.077-.077.85-.1,1.544-.1,2.934v5.994a25.653,25.653,0,0,0,.1,2.933c-.849-.077-1.621-.1-2.727-.1h-1.9a19.52,19.52,0,0,0,7.357,2.007,9.388,9.388,0,0,0-1.389,2.5,20.47,20.47,0,0,1-5.043-1.287A18.313,18.313,0,0,1,181.2,49.6l1.543-1.261h-7.2l1.595,1.261a13.609,13.609,0,0,1-3.524,1.981,20.374,20.374,0,0,1-4.682,1.338,6.362,6.362,0,0,0-1.569-2.342c3.267-.488,5.608-1.234,7.049-2.238ZM190.181,33.7a14.849,14.849,0,0,0,.1,2.084c-.617-.052-1.286-.077-2.7-.077H171.169c-1.287,0-2.11.025-2.676.077a11.867,11.867,0,0,0,.128-2.084V31.7a13.4,13.4,0,0,0-.128-2.161,26.837,26.837,0,0,0,2.907.1h15.976a26.548,26.548,0,0,0,2.907-.1,16.846,16.846,0,0,0-.1,2.161Zm-15.333-1.853h-3.576V33.5h3.576Zm-1.8,8.1h12.785V38.822H173.047Zm0,3.036h12.785V41.91H173.047Zm0,3.19h12.785V44.946H173.047ZM181,31.851h-3.551V33.5H181Zm6.432,1.646V31.851H183.6V33.5Z" style="fill:#fff"/><path d="M197.827,37.665a17.661,17.661,0,0,0,2.984-.437,44.858,44.858,0,0,1,8.078-.875,9.288,9.288,0,0,1,4.862,1.055,5.3,5.3,0,0,1,2.5,4.708c0,2.933-1.775,5.608-4.888,7.384-2.109,1.209-3.91,1.749-8.1,2.418a7.363,7.363,0,0,0-1.338-3.216,17.939,17.939,0,0,0,7.743-1.955c2.032-1.132,3.139-2.753,3.139-4.527,0-1.93-1.363-2.907-4.039-2.907a35.961,35.961,0,0,0-10.187,1.775Zm4.014-8.207a35.257,35.257,0,0,0,10.728,1.492h.721l-.437,3.164a57.011,57.011,0,0,1-12.015-1.62Z" style="fill:#fff"/></svg>