<svg xmlns="http://www.w3.org/2000/svg" width="240.66" height="80.832" viewBox="0 0 240.66 80.832"><title>btn_app_txt</title><rect width="240.66" height="80.832" style="fill:none"/><path d="M30.129,19.2H25.112a8.862,8.862,0,0,1-1.416-.086l-.4-.059v1.893l.4-.062a8.925,8.925,0,0,1,1.428-.087h1.657v7.073a7.231,7.231,0,0,1-.1,1.388l-.078.415h2.046l-.068-.407a7.656,7.656,0,0,1-.1-1.4V20.8h1.645a8.976,8.976,0,0,1,1.465.087l.4.062v-1.9l-.4.062A8.645,8.645,0,0,1,30.129,19.2Z" style="fill:#fff"/><path d="M37.9,19.008c-2.916,0-4.8,2.132-4.8,5.431s1.879,5.431,4.787,5.431,4.8-2.132,4.8-5.431S40.812,19.008,37.9,19.008ZM39.9,27.483v0a2.69,2.69,0,0,1-1.978.771c-1.866,0-3.072-1.5-3.072-3.831s1.2-3.817,3.059-3.817a2.8,2.8,0,0,1,2,.785,4.209,4.209,0,0,1,1.03,3.046A4.274,4.274,0,0,1,39.9,27.483Z" style="fill:#fff"/><path d="M52.252,27.706l-3.177-4.037,2.557-2.545c.039-.038.2-.2.436-.448.106-.115.225-.23.355-.358l.2-.2c.1-.1.1-.1.324-.314l.643-.6H51.135l-.175.051-.071.128a4.49,4.49,0,0,1-.832.993l-3.312,3.333V20.991a7.036,7.036,0,0,1,.1-1.378l.075-.413H44.891l.065.405a7.915,7.915,0,0,1,.1,1.386v6.895a7.243,7.243,0,0,1-.1,1.377l-.075.413h2.03l-.069-.408a7.362,7.362,0,0,1-.1-1.382v-1.95l1.12-1.1,2.8,3.6a7.71,7.71,0,0,1,.755,1.109l.072.128h2.565l-.626-.6A10.829,10.829,0,0,1,52.252,27.706Z" style="fill:#fff"/><path d="M61.906,19.452a4.879,4.879,0,0,1-.565,1.1l-1.929,3.1-1.93-3.1a5.005,5.005,0,0,1-.594-1.107L56.81,19.2H54.441l.436.563a12.44,12.44,0,0,1,.756,1.1l2.9,4.467v2.56a7.746,7.746,0,0,1-.1,1.385l-.065.405h2.06l-.068-.407a7.551,7.551,0,0,1-.1-1.383V25.339l2.907-4.485a8.471,8.471,0,0,1,.749-1.072l.513-.581H61.979Z" style="fill:#fff"/><path d="M69.61,19.008c-2.916,0-4.8,2.132-4.8,5.431s1.879,5.431,4.787,5.431,4.8-2.132,4.8-5.431S72.519,19.008,69.61,19.008ZM71.6,27.483v0a2.69,2.69,0,0,1-1.978.771c-1.866,0-3.072-1.5-3.072-3.831s1.2-3.817,3.059-3.817a2.8,2.8,0,0,1,2,.785,4.209,4.209,0,0,1,1.03,3.046A4.274,4.274,0,0,1,71.6,27.483Z" style="fill:#fff"/><path d="M93.109,27.809V21.081a8.516,8.516,0,0,1,.1-1.476l.065-.405H91.1l-.059.278a6.2,6.2,0,0,1-.413,1.2l-2.846,6.373-2.858-6.375a5.815,5.815,0,0,1-.4-1.2l-.055-.282H82.276l.065.405a8.516,8.516,0,0,1,.1,1.476v6.728a8.176,8.176,0,0,1-.1,1.462l-.065.405h2l-.072-.41a7.808,7.808,0,0,1-.1-1.457V22.78l2.405,5.338a6.488,6.488,0,0,1,.452,1.273l.055.284h1.477l.065-.267a7.029,7.029,0,0,1,.468-1.276l2.419-5.323v5a8.132,8.132,0,0,1-.1,1.457l-.072.41h2l-.068-.407A7.835,7.835,0,0,1,93.109,27.809Z" style="fill:#fff"/><path d="M102.218,19.452a4.879,4.879,0,0,1-.565,1.1l-1.929,3.1-1.93-3.1a5.005,5.005,0,0,1-.594-1.107l-.079-.238H94.753l.436.563a12.44,12.44,0,0,1,.756,1.1l2.9,4.467v2.56a7.746,7.746,0,0,1-.1,1.385l-.065.405h2.06l-.068-.407a7.551,7.551,0,0,1-.1-1.383V25.339l2.907-4.485a8.471,8.471,0,0,1,.749-1.072l.513-.581H102.29Z" style="fill:#fff"/><path d="M110.106,23.595l-.17-.037a8.06,8.06,0,0,1-1.611-.408c-.623-.253-.9-.6-.9-1.13,0-.824.782-1.4,1.9-1.4a2.057,2.057,0,0,1,1.635.619,1.779,1.779,0,0,1,.377.913l.064.325,1.778-.254-.078-.368a3.3,3.3,0,0,0-.627-1.5,3.713,3.713,0,0,0-3.123-1.323c-2.213,0-3.643,1.183-3.643,3.013a2.526,2.526,0,0,0,1.375,2.337,6.177,6.177,0,0,0,1.844.629,5.881,5.881,0,0,1,2.028.595,1.124,1.124,0,0,1,.566,1.07c0,1-.769,1.566-2.107,1.566a2.28,2.28,0,0,1-1.871-.754,1.673,1.673,0,0,1-.327-1.079l-.023-.372-1.845.233.055.354a3.633,3.633,0,0,0,.67,1.854,4,4,0,0,0,3.381,1.363c2.386,0,3.81-1.193,3.81-3.192C113.264,24.98,112.319,24.066,110.106,23.595Z" style="fill:#fff"/><path d="M121.551,19.2h-5.017a8.862,8.862,0,0,1-1.416-.086l-.4-.059v1.893l.4-.062a8.925,8.925,0,0,1,1.428-.087H118.2v7.073a7.231,7.231,0,0,1-.1,1.388l-.078.415h2.046l-.068-.407a7.656,7.656,0,0,1-.1-1.4V20.8h1.645a8.976,8.976,0,0,1,1.465.087l.4.062v-1.9l-.4.062A8.645,8.645,0,0,1,121.551,19.2Z" style="fill:#fff"/><path d="M130.852,28.076h-3.729V24.993h3.033a8.359,8.359,0,0,1,1.389.087l.4.062V23.254l-.4.052a9.623,9.623,0,0,1-1.4.088h-3.033V20.8h3.612a8.84,8.84,0,0,1,1.39.087l.4.059V19.053l-.4.062a9.251,9.251,0,0,1-1.39.086h-3.666c-.617,0-.954-.013-1.4-.038l-.424-.023.058.42a9.166,9.166,0,0,1,.1,1.419v6.856a8.579,8.579,0,0,1-.1,1.476l-.068.432.434-.027c.41-.023.77-.038,1.4-.038h3.77a8.008,8.008,0,0,1,1.385.086l.405.065V27.935l-.4.055A9.129,9.129,0,0,1,130.852,28.076Z" style="fill:#fff"/><path d="M142.723,27.989v0c-.4-.883-.706-1.555-1.024-2.176a4.353,4.353,0,0,0-.759-1.149,2.568,2.568,0,0,0,.751-.483,2.664,2.664,0,0,0,.895-2.158c0-1.792-1.182-2.819-3.243-2.819h-2.83c-.6,0-.961-.015-1.383-.038l-.431-.023.065.425a9.054,9.054,0,0,1,.1,1.428v6.895a7.571,7.571,0,0,1-.1,1.383l-.069.407h2.024l-.068-.407a7.421,7.421,0,0,1-.1-1.4V25.212h2.03c.8,0,1.217.31,1.954,2.051a8.993,8.993,0,0,1,.732,2.1l.031.315h2.29l-.308-.526A11.469,11.469,0,0,1,142.723,27.989Zm-1.879-5.866a1.363,1.363,0,0,1-.387,1.052,1.707,1.707,0,0,1-1.206.45h-2.7V20.787h2.776C140.348,20.787,140.844,21.224,140.844,22.123Z" style="fill:#fff"/><path d="M151.223,19.452a4.879,4.879,0,0,1-.565,1.1l-1.929,3.1-1.93-3.1a5.005,5.005,0,0,1-.594-1.107l-.079-.238h-2.368l.436.563a12.44,12.44,0,0,1,.756,1.1l2.9,4.467v2.56a7.746,7.746,0,0,1-.1,1.385l-.065.405h2.06l-.068-.407a7.551,7.551,0,0,1-.1-1.383V25.339l2.907-4.485a8.471,8.471,0,0,1,.749-1.072l.513-.581h-2.454Z" style="fill:#fff"/><path d="M167.824,26.056l-.021.1a2.521,2.521,0,0,1-.45,1.142,2.577,2.577,0,0,1-2.126.942c-1.851,0-3.046-1.5-3.046-3.818,0-2.347,1.167-3.8,3.046-3.8a2.474,2.474,0,0,1,1.962.808,2.646,2.646,0,0,1,.537,1.017l.11.311,1.713-.49-.136-.358a4.147,4.147,0,0,0-4.212-2.886,4.421,4.421,0,0,0-3.191,1.194,5.872,5.872,0,0,0-1.57,4.249,5.8,5.8,0,0,0,1.488,4.155,4.444,4.444,0,0,0,3.261,1.236,4.35,4.35,0,0,0,3.611-1.632,4.5,4.5,0,0,0,.751-1.643l.1-.353-1.779-.428Z" style="fill:#fff"/><path d="M173.572,19.613l.075-.412h-2.057l.068.407a7.4,7.4,0,0,1,.1,1.384v6.895a7.49,7.49,0,0,1-.1,1.385l-.065.405h2.051l-.072-.41a7.684,7.684,0,0,1-.111-1.38V20.991A7.654,7.654,0,0,1,173.572,19.613Z" style="fill:#fff"/><path d="M184.129,27.989v0c-.4-.883-.706-1.555-1.024-2.176a4.353,4.353,0,0,0-.759-1.149,2.568,2.568,0,0,0,.751-.483,2.664,2.664,0,0,0,.895-2.158c0-1.792-1.182-2.819-3.243-2.819h-2.83c-.6,0-.961-.015-1.383-.038l-.431-.023.065.425a9.054,9.054,0,0,1,.1,1.428v6.895a7.571,7.571,0,0,1-.1,1.383l-.069.407h2.024l-.068-.407a7.421,7.421,0,0,1-.1-1.4V25.212h2.03c.8,0,1.217.31,1.954,2.051a8.993,8.993,0,0,1,.732,2.1l.031.315H185l-.308-.526A11.469,11.469,0,0,1,184.129,27.989Zm-1.879-5.866a1.363,1.363,0,0,1-.387,1.052,1.707,1.707,0,0,1-1.206.45h-2.7V20.787h2.776C181.754,20.787,182.25,21.224,182.25,22.123Z" style="fill:#fff"/><path d="M193.613,26.056l-.021.1a2.521,2.521,0,0,1-.45,1.142,2.577,2.577,0,0,1-2.126.942c-1.851,0-3.046-1.5-3.046-3.818,0-2.347,1.167-3.8,3.046-3.8a2.474,2.474,0,0,1,1.962.808,2.646,2.646,0,0,1,.537,1.017l.11.311,1.713-.49-.136-.358a4.147,4.147,0,0,0-4.212-2.886,4.421,4.421,0,0,0-3.191,1.194,5.872,5.872,0,0,0-1.57,4.249,5.8,5.8,0,0,0,1.488,4.155,4.444,4.444,0,0,0,3.261,1.236,4.35,4.35,0,0,0,3.611-1.632,4.5,4.5,0,0,0,.751-1.643l.1-.353-1.779-.428Z" style="fill:#fff"/><path d="M204.185,19.491l.02.118a7.718,7.718,0,0,1,.1,1.42v4.708a2.872,2.872,0,0,1-.559,1.816,2.555,2.555,0,0,1-1.985.741,2.3,2.3,0,0,1-2.545-2.558V21.03a7.187,7.187,0,0,1,.1-1.416l.075-.413h-2.043l.069.408a7.711,7.711,0,0,1,.1,1.421v4.747a4.1,4.1,0,0,0,1.048,2.954,4.248,4.248,0,0,0,3.187,1.151,4.371,4.371,0,0,0,3.172-1.124A4.187,4.187,0,0,0,206,25.777V21a7.463,7.463,0,0,1,.1-1.4l.069-.407h-2.037Z" style="fill:#fff"/><path d="M212.923,23.595l-.17-.037a8.06,8.06,0,0,1-1.611-.408c-.623-.253-.9-.6-.9-1.13,0-.824.782-1.4,1.9-1.4a2.057,2.057,0,0,1,1.635.619,1.779,1.779,0,0,1,.377.913l.064.325L216,22.224l-.078-.368a3.3,3.3,0,0,0-.627-1.5,3.713,3.713,0,0,0-3.123-1.323c-2.213,0-3.643,1.183-3.643,3.013a2.526,2.526,0,0,0,1.375,2.337,6.177,6.177,0,0,0,1.844.629,5.881,5.881,0,0,1,2.028.595,1.124,1.124,0,0,1,.566,1.07c0,1-.769,1.566-2.107,1.566a2.28,2.28,0,0,1-1.871-.754,1.673,1.673,0,0,1-.327-1.079l-.023-.372-1.845.233.055.354a3.633,3.633,0,0,0,.67,1.854,4,4,0,0,0,3.381,1.363c2.386,0,3.81-1.193,3.81-3.192C216.08,24.98,215.136,24.066,212.923,23.595Z" style="fill:#fff"/><path d="M35.408,47.5a11.8,11.8,0,0,0-.1,2.084c-.1,4.4-.8,6.869-2.547,9.107-1.544,1.98-3.422,3.293-6.638,4.631a9.068,9.068,0,0,0-2.032-2.933,11.864,11.864,0,0,0,4.5-2.187c2.624-2.083,3.447-4.3,3.447-9.158a6.489,6.489,0,0,0-.129-1.544Zm10.445-3.241a7.143,7.143,0,0,0-1.029,1.8,16.32,16.32,0,0,1-3.962,5.171,16.108,16.108,0,0,1-3.087,2.136,8.693,8.693,0,0,0-2.315-2.341,11.948,11.948,0,0,0,3.756-2.367,10.668,10.668,0,0,0,2.444-3.268H28.153a24.827,24.827,0,0,0-3.5.154V42.331a20.5,20.5,0,0,0,3.55.206H41.634a7.081,7.081,0,0,0,2.5-.231Z" style="fill:#fff"/><path d="M69.358,43.283c.772,0,1.081-.025,1.519-.052a2.971,2.971,0,1,1,2.958,2.959,3.412,3.412,0,0,1-.488-.052C71.263,54.552,66.709,59.8,58.579,63.2a9.472,9.472,0,0,0-2.264-3.062c7.126-2.212,11.782-7,13.429-13.841H57.5a18.62,18.62,0,0,0-3.242.154V43.1a17.647,17.647,0,0,0,3.293.18Zm2.8-.077a1.685,1.685,0,1,0,1.672-1.672A1.669,1.669,0,0,0,72.163,43.206Z" style="fill:#fff"/><path d="M89.251,41.714a13,13,0,0,0-.1,2.315v7.1a12.341,12.341,0,0,0,.1,2.264H85.727a18.572,18.572,0,0,0,.128-2.315V44a16.26,16.26,0,0,0-.1-2.315Zm11.68.025a12.232,12.232,0,0,0-.129,2.393v3.474c-.025,4.013-.206,6.174-.669,7.795a9.856,9.856,0,0,1-5.067,5.994,21.83,21.83,0,0,1-5.017,1.981,8.793,8.793,0,0,0-1.8-3.062A13.884,13.884,0,0,0,93.8,58.256c2.418-1.595,3.267-3.164,3.55-6.561.1-1.105.129-2.237.129-4.3V44.184a13.49,13.49,0,0,0-.129-2.444Z" style="fill:#fff"/><path d="M112,62.784c-.025-.464-.052-.618-.129-1.21a44.919,44.919,0,0,1-.669-7.691,49.393,49.393,0,0,1,1.056-10.06,16.969,16.969,0,0,0,.386-2.393l3.4.36a35.508,35.508,0,0,0-1.621,7.692,43.139,43.139,0,0,0-.386,5.686c0,.565-.025.771-.051,1.415a26.029,26.029,0,0,1,1.338-3.4l2.058.927a21.122,21.122,0,0,0-2.29,7.795c0,.154,0,.36.026.694Zm10.96-10.162c-1.287,1.492-1.827,2.6-1.827,3.7,0,1.467,1.415,2.238,4.091,2.238a18.089,18.089,0,0,0,6.123-.978l.257,3.268a8.6,8.6,0,0,0-1.055.154,31.76,31.76,0,0,1-5.325.488c-3.19,0-5.248-.72-6.38-2.237a4.309,4.309,0,0,1-.772-2.521,8.407,8.407,0,0,1,2.367-5.3Zm-4.245-8.516a18.547,18.547,0,0,0,4.759.412,28.328,28.328,0,0,0,7-.7l.154,3.113c-.206.025-.592.077-1.826.231a46.032,46.032,0,0,1-5.506.309,30.523,30.523,0,0,1-4.631-.283Z" style="fill:#fff"/><path d="M139.357,46.242a18.4,18.4,0,0,0,3.01-.515c5.866-1.261,7.255-1.467,10.239-1.467,5.094,0,8.412,2.855,8.412,7.229,0,3.5-2.058,6.457-5.711,8.232-2.341,1.157-4.348,1.62-9.056,2.135a11.134,11.134,0,0,0-1.312-3.318c4.116-.18,6.277-.566,8.464-1.518a7.131,7.131,0,0,0,3.885-3.808,5.688,5.688,0,0,0,.282-1.827,3.765,3.765,0,0,0-1.955-3.344,6.7,6.7,0,0,0-3.318-.7,36.65,36.65,0,0,0-10.137,1.827,9.428,9.428,0,0,0-2.058.72Z" style="fill:#fff"/><path d="M173.093,43.077a29.863,29.863,0,0,0-.206,3.911,48.1,48.1,0,0,0,.489,6.895c.438,2.675,1.26,4.321,2.084,4.321.386,0,.745-.386,1.055-1.105a18.985,18.985,0,0,0,1.363-4.657,12.7,12.7,0,0,0,2.572,2.342c-1.338,5.017-2.83,7.1-5.017,7.1-1.724,0-3.112-1.261-4.142-3.73-1.055-2.573-1.518-6.3-1.621-13.43a12.259,12.259,0,0,0-.1-1.646Zm12.168,1.158a25.644,25.644,0,0,1,5.789,13.841l-3.19,1.209a26.077,26.077,0,0,0-1.646-7.435,22.418,22.418,0,0,0-3.653-6.329Z" style="fill:#fff"/><path d="M197.252,44.107c.566.025.849.025.978.025.463,0,.463,0,4.245-.257,1.44-.077,5.711-.309,12.837-.644a14.487,14.487,0,0,0,2.959-.257l.18,3.293a4.023,4.023,0,0,0-.54-.025,11.5,11.5,0,0,0-5.094,1.389c-3.268,1.7-5.2,4.271-5.2,6.869a4.32,4.32,0,0,0,3.421,4.193,15.621,15.621,0,0,0,3.834.669c.025,0,.257,0,.515-.025l-.464,3.5a5.508,5.508,0,0,0-.874-.154,15.5,15.5,0,0,1-6.021-1.7,6.884,6.884,0,0,1-3.679-6.2,9.07,9.07,0,0,1,2.444-6.071,11.35,11.35,0,0,1,3.575-2.573c-2.083.309-3.087.386-8.669.8a37.335,37.335,0,0,0-4.271.515Z" style="fill:#fff"/></svg>