<svg xmlns="http://www.w3.org/2000/svg" width="157.889" height="15.734" viewBox="0 0 157.889 15.734"><title>created_by_scrap</title><path d="M7.03,9.912h2.3a4.356,4.356,0,0,1-4.541,3.941A4.626,4.626,0,0,1,0,9.139,4.626,4.626,0,0,1,4.794,4.426,4.355,4.355,0,0,1,9.334,8.367H7.03A2.185,2.185,0,0,0,4.78,6.529a2.463,2.463,0,0,0-2.5,2.61,2.462,2.462,0,0,0,2.5,2.61A2.184,2.184,0,0,0,7.03,9.912Z" style="fill:#231f20"/><path d="M13.1,11.043v2.623h-2.25V4.612H14.82c2.237,0,3.742,1.225,3.742,3.182a3.046,3.046,0,0,1-1.731,2.81l2.33,3.063H16.445L14.5,11.043Zm1.664-2.024c.865,0,1.558-.479,1.558-1.225s-.693-1.2-1.558-1.2H13.1V9.019Z" style="fill:#231f20"/><path d="M22.522,8.22H26.53v1.918H22.522v1.571h4.594v1.957H20.272V4.612h6.845V6.569H22.522Z" style="fill:#231f20"/><path d="M30.958,12.108l-.6,1.558h-2.4L31.81,4.558h2.144l3.835,9.108H35.405l-.612-1.558Zm1.918-4.927L31.7,10.191h2.343Z" style="fill:#231f20"/><path d="M42.223,6.623v7.044h-2.25V6.623H37.084V4.612H45.1v2.01Z" style="fill:#231f20"/><path d="M48.425,8.22h4.008v1.918H48.425v1.571h4.594v1.957H46.174V4.612h6.844V6.569H48.425Z" style="fill:#231f20"/><path d="M58.316,4.612c2.836,0,4.887,1.851,4.887,4.5,0,2.69-2.051,4.554-4.887,4.554H54.667V4.612Zm0,7.03a2.505,2.505,0,1,0,0-5.007h-1.4v5.007Z" style="fill:#231f20"/><path d="M75.891,11.149c0,1.505-1.212,2.517-3.249,2.517H67.9V4.612h4.474c1.957,0,3.116.932,3.116,2.41a2.076,2.076,0,0,1-1.264,1.984A2.1,2.1,0,0,1,75.891,11.149ZM70.152,8.3h1.877c.839,0,1.305-.386,1.305-.972s-.439-.879-1.305-.879H70.152Zm2.2,3.5c.919,0,1.332-.413,1.332-.945,0-.56-.466-.839-1.292-.839H70.152V11.8Z" style="fill:#231f20"/><path d="M81.893,10.937v2.73H79.629v-2.73L76.047,4.612h2.49l2.21,3.941,2.224-3.941h2.49Z" style="fill:#231f20"/><path d="M103.853,3.37,101.88,5.1a2.81,2.81,0,0,0-2.116-1.44,1.231,1.231,0,0,0-.847.289.78.78,0,0,0-.33.622,1.094,1.094,0,0,0,.237.661,16.035,16.035,0,0,0,1.944,1.787c1.009.848,1.633,1.38,1.844,1.594a5.8,5.8,0,0,1,1.145,1.55A4.094,4.094,0,0,1,104.1,11.8a3.717,3.717,0,0,1-1.192,2.827,4.313,4.313,0,0,1-3.1,1.111,4.632,4.632,0,0,1-2.6-.722,5.772,5.772,0,0,1-1.9-2.293l2.228-1.334q1.019,1.848,2.325,1.85a1.671,1.671,0,0,0,1.144-.411,1.171,1.171,0,0,0,.461-.914,1.559,1.559,0,0,0-.349-.939A9.91,9.91,0,0,0,99.58,9.523a16.289,16.289,0,0,1-2.945-2.861,3.6,3.6,0,0,1-.669-2.011,3.318,3.318,0,0,1,1.1-2.489,3.9,3.9,0,0,1,2.741-1.027,4.221,4.221,0,0,1,1.988.486A7.148,7.148,0,0,1,103.853,3.37Zm16.171.558L118.21,5.7a5.568,5.568,0,0,0-4.165-1.985,4.386,4.386,0,0,0-3.28,1.356,4.556,4.556,0,0,0-1.334,3.347,4.992,4.992,0,0,0,.579,2.449,4.436,4.436,0,0,0,1.675,1.69,4.822,4.822,0,0,0,2.412.611,5.083,5.083,0,0,0,2.063-.424,7.668,7.668,0,0,0,2.05-1.56l1.755,1.879a9.48,9.48,0,0,1-2.85,2.091,7.58,7.58,0,0,1-3.07.583,6.94,6.94,0,0,1-5.187-2.051,7.17,7.17,0,0,1-2.029-5.264,7.335,7.335,0,0,1,.927-3.7,6.941,6.941,0,0,1,2.637-2.594,7.22,7.22,0,0,1,3.7-.986,7.592,7.592,0,0,1,3.243.723A7.92,7.92,0,0,1,120.024,3.928Zm2.768-2.451H125.6a9.377,9.377,0,0,1,3.288.418,3.318,3.318,0,0,1,1.566,1.37,4.192,4.192,0,0,1,.59,2.26,3.949,3.949,0,0,1-.653,2.308,4.069,4.069,0,0,1-2,1.4l3.962,6.164h-2.9l-3.8-5.871h-.242v5.871h-2.626Zm2.626,5.448h.833A3.17,3.17,0,0,0,128,6.594a1.229,1.229,0,0,0,.478-1.1,1.41,1.41,0,0,0-.226-.8,1.421,1.421,0,0,0-.642-.478,5.045,5.045,0,0,0-1.463-.147h-.725Zm14.209-3.746L140.954,0l1.353,3.178,5.344,12.217H144.9l-1.3-2.88h-5.294L137,15.395h-2.754Zm1.342,2.878-1.637,3.883H142.6ZM149.6,1.476h2.818A9.321,9.321,0,0,1,155.7,1.9a3.385,3.385,0,0,1,1.6,1.369,4.328,4.328,0,0,1,.582,2.262,3.834,3.834,0,0,1-.764,2.429A3.976,3.976,0,0,1,155.041,9.3a12.255,12.255,0,0,1-2.805.222v5.871H149.6Zm2.634,5.448h.848a4.71,4.71,0,0,0,1.393-.135,1.233,1.233,0,0,0,.611-.477,1.337,1.337,0,0,0,.225-.789,1.242,1.242,0,0,0-.63-1.173,3.478,3.478,0,0,0-1.7-.276h-.751Z" style="fill:#231f20"/></svg>