<svg xmlns="http://www.w3.org/2000/svg" width="48" height="48" viewBox="0 0 48 48"><title>icon_m_mascot</title><rect width="48" height="48" style="fill:none;opacity:0.1"/><path d="M34.325,14.568H13.675c-5.5,3.153-9.154,10.2-9.154,16.582C4.521,41,13.242,47.529,24,47.529S43.479,41,43.479,31.15C43.479,24.772,39.822,17.721,34.325,14.568Z" style="fill:#8dc21f"/><ellipse cx="38.983" cy="17.087" rx="1.948" ry="1.784" style="fill:#2c9835"/><ellipse cx="9.402" cy="17.087" rx="1.948" ry="1.784" style="fill:#2c9835"/><ellipse cx="23.545" cy="29.792" rx="7.803" ry="6.088" style="fill:#fff"/><polygon points="33.205 14.054 34.04 0.47 14.89 0.47 15.725 14.054 12.841 14.054 12.841 14.568 35.026 14.568 35.026 14.054 33.205 14.054" style="fill:#fff100"/><circle cx="35.292" cy="27.246" r="1.158" style="fill:#231815"/><circle cx="12.455" cy="27.246" r="1.158" style="fill:#231815"/><circle cx="23.545" cy="25.238" r="0.868" style="fill:#231815"/><polygon points="24.394 27.354 22.69 27.354 23.043 25.866 24.047 25.866 24.394 27.354" style="fill:#231815"/></svg>