<svg xmlns="http://www.w3.org/2000/svg" width="48" height="48" viewBox="0 0 48 48"><title>icon_m_food</title><rect width="48" height="48" style="fill:none;opacity:0.1"/><path d="M37.949,21.5A2.983,2.983,0,0,0,38,21V8a3,3,0,1,0-6,0V21a2.983,2.983,0,0,0,.051.5A9,9,0,0,0,26,30c0,4.971,4.03,12,9,12s9-7.029,9-12A9,9,0,0,0,37.949,21.5Z" style="fill:#919191"/><path d="M23.913,20.55A1.975,1.975,0,0,0,24,20V8a2,2,0,0,0-4,0V19.5a1.5,1.5,0,0,1-3,0V8a2,2,0,0,0-4,0V19.5a1.5,1.5,0,1,1-3,0V8A2,2,0,0,0,6,8V20a1.975,1.975,0,0,0,.086.55A8.278,8.278,0,0,0,12,27.035V39a3,3,0,0,0,6,0V27.035A8.278,8.278,0,0,0,23.913,20.55Z" style="fill:#919191"/><path d="M38,21V8a3,3,0,1,0-6,0V21" style="fill:#00961e"/><path d="M12,27.035V39a3,3,0,0,0,6,0V27.035" style="fill:#00961e"/></svg>