<svg version="1.1"
	 xmlns="http://www.w3.org/2000/svg" xmlns:xlink="http://www.w3.org/1999/xlink"
	 x="0px" y="0px" width="4000" height="4000" viewBox="0 0 4000 4000"
	 xml:space="preserve">
<style type="text/css">
	.st0{ fill:#000; }
</style>
<defs>
	<pattern id="icon-pattern" x="0" y="0" width="200px" height="281px" viewBox="0 0 200 281"
		patternUnits="userSpaceOnUse" patternContentUnits="userSpaceOnUse" patternTransform="rotate(225)">
	<g>
		<path class="st0" d="M186,116l14,0v69c-10,0-18.4,3.5-25.5,10.5c-7,7-10.5,15.4-10.5,25.3c0,0,0,0,0,0.1c0,15.1-4.8,28.3-14.4,39.5
			c-9.6,11.2-21.6,18.1-36,20.7H85v-24h14c9.7,0,17.9-3.5,24.7-10.4c6.8-6.9,10.2-15.4,10.2-25.3c0-9.8-3.4-18.2-10.2-25.2
			c-6.8-6.9-15.1-10.4-24.7-10.4c-9.7,0-17.9,3.5-24.7,10.4C67.4,203,64,211.4,64,221.2c0,0,0-0.3,0-0.2c0,15.1-4.7,28.2-14.2,39.4
			c-9.5,11.2-21.4,18.1-35.7,20.7H0v-24.1c9.9,0,18.3-3.5,25.2-10.5c7-7,10.4-15.5,10.4-25.4c0-9.9-3.5-18.3-10.4-25.3
			c-7-7-15.4-10.5-25.2-10.5v-68.8c9.9,0,18.3-3.5,25.2-10.5c7-7,10.4-15.5,10.4-25.4c0-9.9-3.5-18.3-10.4-25.3
			c-7-7-15.4-10.5-25.2-10.5V0h14v20.5c12.1,2.3,22.7,7.8,31.7,16.3c1.5,1.5,3,3,4.3,4.5c1.3-1.5,2.8-3,4.3-4.5
			c9-8.5,19.5-13.9,31.6-16.3V0h28l0,20.5c12.1,2.3,22.7,7.8,31.7,16.3c1.5,1.5,3,3,4.3,4.5c1.3-1.5,2.8-3,4.3-4.5
			c9-8.5,19.5-13.9,31.6-16.3V0h14v44.7c-10,0-18.4,3.5-25.5,10.5c-7,7-10.5,15.4-10.5,25.3c0,0,0-0.5,0-0.5
			c0,15.1-4.8,28.2-14.3,39.3c-9.5,11.2-21.4,18.1-35.7,20.6v20.7c12.1,2.3,22.7,7.8,31.7,16.3c1.5,1.5,3,3,4.3,4.5
			c1.3-1.5,2.8-3,4.3-4.5c9-8.5,19.5-13.9,31.6-16.3V116z M99.7,116c9.9,0,18.3-3.5,25.3-10.5c7-7,10.5-15.5,10.5-25.5
			c0-9.9-3.5-18.3-10.5-25.3c-7-7-15.4-10.5-25.3-10.5c-9.9,0-18.3,3.5-25.3,10.5C67.5,61.7,64,70.2,64,80c0,0,0,0,0,0.1
			c0,15.1-4.8,28.2-14.3,39.4c-9.5,11.2-21.4,18.1-35.7,20.7v20.5c12.1,2.3,22.7,7.8,31.7,16.3c1.5,1.5,3,3,4.3,4.5
			c1.3-1.5,2.8-3,4.3-4.5c9-8.5,19.5-13.9,31.6-16.3V116H99.7z"/>
		<rect x="186" y="257" class="st0" width="14" height="24"/>
		<path class="st0" d="M12.8,234.5c3.6-3.6,5.3-7.8,5.3-12.8c0-5-1.8-9.3-5.3-12.8c-3.6-3.6-7.8-5.3-12.8-5.3v36.3
			C5,239.9,9.3,238.1,12.8,234.5z"/>
		<path class="st0" d="M12.8,93.9c3.6-3.6,5.3-7.8,5.3-12.8c0-5-1.8-9.3-5.3-12.8C9.3,64.7,5,62.9,0,62.9v36.3
			C5,99.3,9.3,97.5,12.8,93.9z"/>
		<path class="st0" d="M100,239.9c5,0,9.3-1.8,12.8-5.3c3.6-3.6,5.3-7.8,5.3-12.8c0-5-1.8-9.3-5.3-12.8c-3.6-3.6-7.8-5.3-12.8-5.3
			c-5,0-9.3,1.8-12.8,5.3c-3.6,3.6-5.3,7.8-5.3,12.8c0,5,1.8,9.3,5.3,12.8C90.7,238.1,95,239.9,100,239.9z"/>
		<path class="st0" d="M100,62.9c-5,0-9.3,1.8-12.8,5.3c-3.6,3.6-5.3,7.8-5.3,12.8c0,5,1.8,9.3,5.3,12.8c3.6,3.6,7.8,5.3,12.8,5.3
			c5,0,9.3-1.8,12.8-5.3c3.6-3.6,5.3-7.8,5.3-12.8c0-5-1.8-9.3-5.3-12.8C109.3,64.7,105,62.9,100,62.9z"/>
		<path class="st0" d="M187.2,208.9c-3.6,3.6-5.3,7.8-5.3,12.8c0,5,1.8,9.3,5.3,12.8c3.6,3.6,7.8,5.3,12.8,5.3v-36.3
			C195,203.5,190.7,205.3,187.2,208.9z"/>
		<path class="st0" d="M181.8,81.1c0,5,1.8,9.3,5.3,12.8c3.6,3.6,7.8,5.3,12.8,5.3V62.9c-5,0-9.3,1.8-12.8,5.3
			C183.6,71.8,181.8,76.1,181.8,81.1z"/>
	</g>
</pattern>
</defs>
 <rect width="100%" height="100%" fill="url(#icon-pattern)" />
</svg>



