<svg xmlns="http://www.w3.org/2000/svg" width="40" height="40" viewBox="0 0 40 40"><title>sns_twitter</title><circle cx="20" cy="20" r="20" style="fill:none"/><path d="M30.445,15.016a7.792,7.792,0,0,1-2.239.614,3.909,3.909,0,0,0,1.714-2.157,7.8,7.8,0,0,1-2.475.946A3.9,3.9,0,0,0,20.8,17.975,11.067,11.067,0,0,1,12.767,13.9a3.9,3.9,0,0,0,1.206,5.2,3.882,3.882,0,0,1-1.766-.488v.049a3.9,3.9,0,0,0,3.127,3.822,3.908,3.908,0,0,1-1.76.067,3.9,3.9,0,0,0,3.641,2.707,7.821,7.821,0,0,1-4.841,1.669,7.935,7.935,0,0,1-.93-.054,11.086,11.086,0,0,0,17.066-9.34q0-.253-.011-.5A7.922,7.922,0,0,0,30.445,15.016Z" style="fill:#fff"/></svg>