<svg xmlns="http://www.w3.org/2000/svg" width="40" height="40" viewBox="0 0 40 40"><title>sns_instagram</title><circle cx="20" cy="20" r="20" style="fill:none"/><path d="M20,10.982c2.937,0,3.285.011,4.445.064a6.087,6.087,0,0,1,2.043.379,3.643,3.643,0,0,1,2.088,2.088,6.087,6.087,0,0,1,.379,2.043c.053,1.16.064,1.508.064,4.445s-.011,3.285-.064,4.445a6.087,6.087,0,0,1-.379,2.043,3.643,3.643,0,0,1-2.088,2.088,6.087,6.087,0,0,1-2.043.379c-1.16.053-1.508.064-4.445.064s-3.285-.011-4.445-.064a6.087,6.087,0,0,1-2.043-.379,3.643,3.643,0,0,1-2.088-2.088,6.087,6.087,0,0,1-.379-2.043c-.053-1.16-.064-1.508-.064-4.445s.011-3.285.064-4.445a6.087,6.087,0,0,1,.379-2.043,3.643,3.643,0,0,1,2.088-2.088,6.087,6.087,0,0,1,2.043-.379c1.16-.053,1.508-.064,4.445-.064M20,9c-2.987,0-3.362.013-4.535.066a8.074,8.074,0,0,0-2.67.511,5.625,5.625,0,0,0-3.217,3.217,8.074,8.074,0,0,0-.511,2.67C9.013,16.638,9,17.013,9,20s.013,3.362.066,4.535a8.074,8.074,0,0,0,.511,2.67,5.625,5.625,0,0,0,3.217,3.217,8.074,8.074,0,0,0,2.67.511C16.638,30.987,17.013,31,20,31s3.362-.013,4.535-.066a8.074,8.074,0,0,0,2.67-.511,5.625,5.625,0,0,0,3.217-3.217,8.074,8.074,0,0,0,.511-2.67C30.987,23.362,31,22.987,31,20s-.013-3.362-.066-4.535a8.074,8.074,0,0,0-.511-2.67,5.625,5.625,0,0,0-3.217-3.217,8.074,8.074,0,0,0-2.67-.511C23.362,9.013,22.988,9,20,9Z" style="fill:#fff"/><path d="M20,14.351A5.649,5.649,0,1,0,25.649,20,5.649,5.649,0,0,0,20,14.351Zm0,9.315A3.667,3.667,0,1,1,23.667,20,3.667,3.667,0,0,1,20,23.667Z" style="fill:#fff"/><circle cx="25.872" cy="14.128" r="1.32" style="fill:#fff"/></svg>