<svg xmlns="http://www.w3.org/2000/svg" width="632" height="73" viewBox="0 0 632 73"><title>tmc_logo_set</title><path d="M625.385,39.408V35.329a3.853,3.853,0,0,0-3.8-3.8h-4.334a3.853,3.853,0,0,0-3.8,3.8v6.517h0a3.853,3.853,0,0,0,3.8,3.8h.108l2.066-2.066,2.066,2.066h.094A10.448,10.448,0,0,1,632,56.066h0v6.517A10.448,10.448,0,0,1,621.583,73h-4.334a10.448,10.448,0,0,1-10.417-10.417V58.5h6.615v4.079a3.853,3.853,0,0,0,3.8,3.8h4.334a3.853,3.853,0,0,0,3.8-3.8V56.066a3.853,3.853,0,0,0-3.8-3.8h-.094l-2.066,2.066-2.066-2.066h-.108a10.448,10.448,0,0,1-10.417-10.417h0V35.329a10.448,10.448,0,0,1,10.417-10.417h4.334A10.448,10.448,0,0,1,632,35.329v4.079Zm-156.7,19.1v4.079a3.853,3.853,0,0,1-3.8,3.8h-1.8a3.853,3.853,0,0,1-3.8-3.8V51.051l2.095-2.095-2.095-2.095V35.329a3.853,3.853,0,0,1,3.8-3.8h1.8a3.853,3.853,0,0,1,3.8,3.8v4.079H475.3V35.329a10.448,10.448,0,0,0-10.417-10.417h-1.8a10.448,10.448,0,0,0-10.417,10.417V46.86l-2.1,2.1,2.1,2.1V62.583A10.448,10.448,0,0,0,463.08,73h1.8A10.448,10.448,0,0,0,475.3,62.583V58.5Zm87.68,0v4.079a3.853,3.853,0,0,1-3.8,3.8h-1.8a3.853,3.853,0,0,1-3.8-3.8V51.051l2.095-2.095-2.095-2.095V35.329a3.853,3.853,0,0,1,3.8-3.8h1.8a3.853,3.853,0,0,1,3.8,3.8v4.079h6.615V35.329a10.448,10.448,0,0,0-10.417-10.417h-1.8a10.448,10.448,0,0,0-10.417,10.417V46.86l-2.1,2.1,2.1,2.1V62.583A10.448,10.448,0,0,0,550.76,73h1.8A10.448,10.448,0,0,0,562.98,62.583V58.5ZM596.115,46.86V24.912H589.5V46.86l-2.1,2.1,2.1,2.1v10.63a4.7,4.7,0,0,1-9.408,0V51.051l2.1-2.1-2.1-2.1V24.912h-6.615V46.86l-2.1,2.1,2.1,2.1v10.63a11.319,11.319,0,0,0,22.638,0V51.051l2.1-2.1Zm-102.748,0V24.912h-6.615V46.86l-2.1,2.1,2.1,2.1V73h6.615V51.051l2.1-2.1ZM522.6,51.735,529.773,73h-6.615l-6.992-20.737H513.75V73h-6.615V51.051l-2.1-2.1,2.1-2.1V24.912h12.221a10.448,10.448,0,0,1,10.417,10.417v6.517A10.453,10.453,0,0,1,522.6,51.735Zm.555-16.406h0a3.853,3.853,0,0,0-3.8-3.8H513.75V45.648h5.606a3.853,3.853,0,0,0,3.8-3.8ZM93.128,73,82.374,41.1l8.209-16.192H83.969L74.561,43.469V24.912H67.946V46.86l-2.1,2.1,2.1,2.1V73h6.615V56.516L78.4,48.94,86.513,73ZM22.638,31.526V24.912H0v6.615H8.012V46.86l-2.1,2.1,2.1,2.1V73h6.615V51.051l2.1-2.1-2.1-2.1V31.526ZM156.115,48.956l-2.1,2.1V62.583A10.448,10.448,0,0,1,143.6,73h-1.8a10.448,10.448,0,0,1-10.417-10.417V51.051l-2.1-2.1,2.1-2.1V35.329A10.448,10.448,0,0,1,141.8,24.912h1.8A10.448,10.448,0,0,1,154.02,35.329V46.86Zm-8.71-13.627a3.853,3.853,0,0,0-3.8-3.8h-1.8a3.853,3.853,0,0,0-3.8,3.8V46.861l2.095,2.095L138,51.051V62.583a3.853,3.853,0,0,0,3.8,3.8h1.8a3.853,3.853,0,0,0,3.8-3.8V51.051l-2.1-2.1,2.1-2.1ZM56.74,48.956l-2.1,2.1V62.583A10.448,10.448,0,0,1,44.227,73h-1.8A10.448,10.448,0,0,1,32.006,62.583V51.051l-2.1-2.1,2.1-2.1V35.329A10.448,10.448,0,0,1,42.424,24.912h1.8A10.448,10.448,0,0,1,54.644,35.329V46.86Zm-8.71-13.627a3.853,3.853,0,0,0-3.8-3.8h-1.8a3.853,3.853,0,0,0-3.8,3.8V46.861l2.095,2.095-2.095,2.095V62.583a3.853,3.853,0,0,0,3.8,3.8h1.8a3.853,3.853,0,0,0,3.8-3.8V51.051l-2.1-2.1,2.1-2.1Zm68.715,11,6.739-21.416h-6.615L110.95,43.72l-5.919-18.808H98.417l6.739,21.416-1.37,2.628,2.628,1.37,1.229,3.9V73h6.615V54.231h0l1.229-3.9,2.628-1.37Zm173.737-6.92V35.329a10.448,10.448,0,0,0-10.417-10.417H275.73a10.448,10.448,0,0,0-10.417,10.417v6.517h0A10.448,10.448,0,0,0,275.73,52.263h.108l2.066,2.066,2.066-2.066h.094a3.853,3.853,0,0,1,3.8,3.8v6.517a3.853,3.853,0,0,1-3.8,3.8H275.73a3.853,3.853,0,0,1-3.8-3.8V58.5h-6.615v4.079A10.448,10.448,0,0,0,275.73,73h4.334a10.448,10.448,0,0,0,10.417-10.417V56.066h0a10.448,10.448,0,0,0-10.417-10.417h-.094L277.9,43.583l-2.066,2.066h-.108a3.853,3.853,0,0,1-3.8-3.8h0V35.329a3.853,3.853,0,0,1,3.8-3.8h4.334a3.853,3.853,0,0,1,3.8,3.8v4.079Zm64.272-7.882V24.912H332.116V46.86l-2.1,2.1,2.1,2.1V73h22.638V66.385H338.731V52.263h16.023V45.648H338.731V31.526Zm-33.368,0V24.912H298.749v6.615h8.012V46.86l-2.1,2.1,2.1,2.1V73h6.615V51.051l2.1-2.1-2.1-2.1V31.526Zm-99.4,15.334V24.912H215.37l-9.51,28.207-9.51-28.207h-6.615V46.86l-2.1,2.1,2.1,2.1V73h6.615V44.531l6.2,18.4h6.615l6.2-18.4V73h6.615V51.051l2.1-2.1Zm160.437,4.874L389.592,73h-6.615l-6.992-20.737h-2.416V73h-6.615V51.051l-2.1-2.1,2.1-2.1V24.912h12.221a10.448,10.448,0,0,1,10.417,10.417v6.517A10.453,10.453,0,0,1,382.422,51.735Zm.555-16.406h0a3.853,3.853,0,0,0-3.8-3.8h-5.606V45.648h5.606a3.853,3.853,0,0,0,3.8-3.8Zm32.107,11,6.739-21.416h-6.615L409.29,43.72l-5.918-18.808h-6.615L403.5,46.328l-1.37,2.628,2.628,1.37,1.229,3.9V73H412.6V54.231h0l1.229-3.9,2.628-1.37Zm-164.777,0,6.739-21.416h-6.615L244.513,43.72l-5.918-18.808H231.98l6.739,21.416-1.37,2.628,2.628,1.37,1.229,3.9V73h6.615V54.231h0l1.229-3.9,2.628-1.37Z"/><path d="M2.042.9,3.951,1c.133,0,.325.03.325.207,0,.163-.177.222-.37.281V4.108H6.023V.378L7.829.467c.148,0,.355.059.355.237,0,.1-.074.148-.355.237V4.108H9.812V.808L11.6.9c.148,0,.311.03.311.178,0,.1-.044.133-.37.281V4.108h2.22V5.795h-2.22v4.913H9.812v-.636H7.829v.8H6.023V5.795H3.907v5.934h8.776v1.7H3.907v.607H2.042V5.795H0V4.108H2.042Zm7.77,4.9H7.829V8.414H9.812Z"/><path d="M25.77,14.009H23.935V8.385l.7.074A9.314,9.314,0,0,1,22.84,6.564H22.4A13.626,13.626,0,0,1,20.6,8.385l.888.1c.119.015.3.03.3.192s-.148.237-.37.326A5.294,5.294,0,0,1,18.267,14.2a3.878,3.878,0,0,0-1.288-1.376,3.789,3.789,0,0,0,2.294-1.7,4.72,4.72,0,0,0,.355-1.983,12.93,12.93,0,0,1-2.841,1.495,4.683,4.683,0,0,0-1.228-1.45,9.507,9.507,0,0,0,4.632-2.619H17.112V.867H28.271v5.7H24.956A10.784,10.784,0,0,0,29.692,9.11a6.326,6.326,0,0,0-1.125,1.539,15.114,15.114,0,0,1-2.8-1.391ZM21.759,2.228H18.992v.888h2.767Zm0,2.072H18.992v.9h2.767Zm1.88-1.184h2.782V2.228H23.639Zm0,2.086h2.782V4.3H23.639Z"/><path d="M45.546,6.268V8.281H32.182V6.268Z"/><path d="M53.326,3.057v1.3H48.56v-1.3Zm2.516,7a1.709,1.709,0,0,0,.489,1.436,3.03,3.03,0,0,0,2.457.74,27.747,27.747,0,0,0,3.537-.178,4.248,4.248,0,0,0-.607,1.776H59.5c-2.841,0-3.7-.533-4.247-1.391a13.34,13.34,0,0,1-1.243,1.154c.015.133.03.414-.133.414-.1,0-.148-.045-.4-.459L53,12.78v1.066H51.55V13.4H50.262v.607h-1.48V9.184H53V12.2a9.737,9.737,0,0,0,1.362-.918V7.5H53.207V5.928h2.634V9.657a9.194,9.194,0,0,0,2.279-3.33h-2V4.818h2.146V.586L59.7.645c.267.015.489.015.489.178,0,.207-.266.237-.37.252V3.841a12.478,12.478,0,0,0,.962-2.708l1.169.414c.119.044.34.163.34.3,0,.207-.252.192-.34.178A13.59,13.59,0,0,1,61.1,4.33C60.888,4.271,60,3.96,59.822,3.9v.918h2.117V6.328H59.822v.1a12.276,12.276,0,0,0,2.516,3.241,4.753,4.753,0,0,0-1.169,1.14,13.5,13.5,0,0,1-1.347-2.1v3.108H58.269V8.8a10.93,10.93,0,0,1-1.243,1.968,8.674,8.674,0,0,0-1.184-1.051Zm-3-9.087V2.3H49V.97Zm0,4.1V6.431H49V5.07Zm0,2.087V8.473H49V7.156ZM51.55,12v-1.45H50.262V12ZM54.14,1.281a20.074,20.074,0,0,1,1.968,2.5,7.67,7.67,0,0,0-1.229.992,12.49,12.49,0,0,0-1.909-2.5Zm3.034-.163A22.764,22.764,0,0,1,58.15,3.9a11.072,11.072,0,0,0-1.332.474,17.473,17.473,0,0,0-.992-2.738Z"/><path d="M71.7,1.148c.162.044.281.089.281.207s-.074.222-.384.252c-.133.636-.281,1.376-.429,1.968,1.7-.1,3.552.325,3.552,4.07a9.36,9.36,0,0,1-.918,4.085,2.881,2.881,0,0,1-2.841,1.835,5.969,5.969,0,0,1-1.347-.163,7.055,7.055,0,0,0-.177-2.161,3.114,3.114,0,0,0,1.346.311c.636,0,1.08-.044,1.555-1.169A8.262,8.262,0,0,0,72.821,7.5c0-.622,0-2.131-1.421-2.131a6.07,6.07,0,0,0-.725.074,22.725,22.725,0,0,1-3.744,7.992,8.94,8.94,0,0,0-1.864-.962,17.246,17.246,0,0,0,3.566-6.645,16.153,16.153,0,0,0-2.56.8l-.636-2.057c.592-.089,3.152-.636,3.685-.71A26.081,26.081,0,0,0,69.579.5Zm3.67,1.687c1.035.977,3.078,3.2,3.078,4.766,0,1.169-1.273,1.6-2.264,1.924a12.876,12.876,0,0,0-.962-1.672c.814-.222,1.08-.3,1.08-.755,0-.769-1.229-2.383-2.323-3.463ZM76.239,1.1A10.915,10.915,0,0,1,77.512,2.6a8.239,8.239,0,0,0-.947.71,12.409,12.409,0,0,0-1.288-1.539ZM77.66.2a9.762,9.762,0,0,1,1.3,1.524c-.415.281-.489.34-1.066.755A6.849,6.849,0,0,0,76.668.852Z"/><path d="M82.246,2.865a9.718,9.718,0,0,0,2.057.177c.089,0,.518,0,.977-.03A25.164,25.164,0,0,1,85.96.452l1.968.622c.118.03.252.089.252.192,0,.163-.192.192-.341.222a11.948,11.948,0,0,0-.5,1.317,14.507,14.507,0,0,0,3.952-1.051l.326,1.761a23.459,23.459,0,0,1-4.722,1.007c-.029.148-.147.829-.162.962a8.76,8.76,0,0,1,1.746-.192c2.531,0,5.136,1.3,5.136,4.055,0,2.6-2.205,4.07-5.121,4.691a6.117,6.117,0,0,0-1.1-1.524c1.865-.34,4.173-1.2,4.173-3.2a2.117,2.117,0,0,0-1.657-2.072,15.477,15.477,0,0,1-2.782,3.981c.118.37.192.562.281.784-.444.281-1.184.725-1.628.991a3.992,3.992,0,0,1-.237-.562,5.023,5.023,0,0,1-2.59.9,1.9,1.9,0,0,1-1.939-2.161,5.806,5.806,0,0,1,3.834-5.076A11.329,11.329,0,0,1,85,4.685c-.252.015-1.05.044-1.243.044a10.616,10.616,0,0,1-1.569-.1Zm2.575,5.091c-.444.311-1.968,1.539-1.968,2.975,0,.3.089.681.548.681a3.387,3.387,0,0,0,1.7-.8A17.641,17.641,0,0,1,84.821,7.956Zm1.865,1.214a12.24,12.24,0,0,0,1.332-2.161,7.443,7.443,0,0,0-1.45.207A12.469,12.469,0,0,0,86.686,9.169Z"/><path d="M106.925,2.11c-.9.681-3.36,2.99-3.922,3.6a6,6,0,0,1,1.939-.326c2.19,0,4.187,1.288,4.187,3.833,0,3.226-3.137,4.588-5.55,4.588-2.279,0-3.6-1.08-3.6-2.486a2.429,2.429,0,0,1,2.693-2.22,3.084,3.084,0,0,1,3.153,2.338,2.132,2.132,0,0,0,1.317-2.057,2.353,2.353,0,0,0-2.664-2.353c-2.59,0-4.084,1.554-6.171,3.715L96.8,9.258a50.9,50.9,0,0,0,6.453-6.186,41.566,41.566,0,0,1-4.484.563l-.326-1.983a24.592,24.592,0,0,0,7.459-.9Zm-4.351,8.6c-.547,0-.814.325-.814.666,0,.592.814.917,1.539.917a3.666,3.666,0,0,0,.888-.118A1.575,1.575,0,0,0,102.574,10.708Z"/><path d="M112.326,6.949V5.144h12.58V6.949h-4.972a6.781,6.781,0,0,1-1.673,4.795,7.467,7.467,0,0,1-3.285,2.1,6.674,6.674,0,0,0-1.494-1.569c4-1.11,4.41-3.552,4.455-5.328Zm10.552-5.683v1.82h-8.45V1.266Z"/><path d="M141.183,6.254v2.1H128.411v-2.1Z"/><path d="M147.413,6.268a22.535,22.535,0,0,1,2.264,1.894,22.315,22.315,0,0,0,3.375-3.626H143.7V2.672h10.566a3.284,3.284,0,0,0,.992-.207l1.228,1.48a5.585,5.585,0,0,0-.591.547,45.329,45.329,0,0,1-4.884,5.135,9.79,9.79,0,0,1,1.569,1.983c-.162.148-.917.8-1.065.932-.267.237-.429.4-.592.563a16.224,16.224,0,0,0-4.869-5.4Z"/><path d="M163.344,2.776c.223.059.282.1.282.207,0,.074-.045.192-.311.252-.933,4.736-2.428,7.577-4.129,9.5a8.121,8.121,0,0,0-1.894-.9c2.723-3.034,3.537-6.216,4.01-9.531Zm3.7-.843a25.211,25.211,0,0,1,4.484,9.249c-.591.3-1.82,1.021-2,1.14a20.345,20.345,0,0,0-4.114-9.19Zm4.484.252A1.369,1.369,0,1,1,170.166.808,1.37,1.37,0,0,1,171.527,2.184Zm-2.057,0a.679.679,0,0,0,.681.681.692.692,0,0,0,.7-.681.688.688,0,0,0-1.376,0Z"/><path d="M186.941,6.254v2.1H174.17v-2.1Z"/><path d="M200.27,2.85a2.229,2.229,0,0,0,1.021-.222l1.065.932c-.252.429-1.036,2.176-1.524,3.271a14.008,14.008,0,0,1-7.089,7.37,7.288,7.288,0,0,0-1.583-1.45,12.454,12.454,0,0,0,7.385-8.08h-4.114a20.806,20.806,0,0,1-3.478,3.937,7.48,7.48,0,0,0-1.539-1.362,15.915,15.915,0,0,0,4.958-6.66l1.82.873c.074.03.207.089.207.222s-.267.192-.356.192c-.177.355-.3.577-.5.977Z"/><path d="M227.921,14.023h-1.746V10.457a14.942,14.942,0,0,1-4.558,3.507,4.13,4.13,0,0,0-1.539-1.332,12.107,12.107,0,0,0,4.869-2.975h-3.078V4.167h4.307V3.4h-5.846V1.9h5.846V.512l1.894.1c.089,0,.326.03.326.192,0,.192-.237.252-.474.3v.8h5.86V3.4h-5.86v.769h4.365v5.49h-3.033a15.242,15.242,0,0,0,4.706,2.8c-1.021.873-1.169,1.11-1.332,1.436a15.8,15.8,0,0,1-4.706-3.448ZM226.175,5.5h-2.486v.8h2.486Zm0,1.939h-2.486v.814h2.486Zm1.746-1.14h2.545V5.5h-2.545Zm0,1.953h2.545V7.438h-2.545Z"/><path d="M242.5.467l1.894.1c.074,0,.3.015.3.163s-.178.207-.37.252v.843h5.8v1.6H236.665v-1.6H242.5ZM241.5,9.894c.119.074.222.133.222.252,0,.163-.252.163-.4.148a13.2,13.2,0,0,1-2.916,3.389,5.727,5.727,0,0,0-1.628-1.051,11.7,11.7,0,0,0,3.123-3.626Zm2.812,2.472c0,1.228-.266,1.746-2.841,1.658a5.175,5.175,0,0,0-.681-1.88,8.2,8.2,0,0,0,1.11.1c.488,0,.592-.163.592-.5V8.725h-4.07v-4.5h9.93v4.5h-4.04Zm-4.07-6.645V7.23h6.319V5.721Zm6.5,3.374a15.077,15.077,0,0,1,2.931,3.374,11.29,11.29,0,0,0-1.628,1.184,13.946,13.946,0,0,0-2.812-3.611Z"/><path d="M254.13,8.9a28.049,28.049,0,0,1,9.368,3.256c-.148.414-.518,1.391-.666,1.953a24.768,24.768,0,0,0-9.1-3.315Zm.326-8.391a23.211,23.211,0,0,1,7.9,2.131,15.578,15.578,0,0,0-.37,2.057,22.2,22.2,0,0,0-7.74-2.308Zm.828,4.262a19.12,19.12,0,0,1,6.468,2.057,12.7,12.7,0,0,0-.385,1.983,16.741,16.741,0,0,0-6.408-2.22Z"/><path d="M268.543,3.486V1.607h7.518a4.018,4.018,0,0,0,1.021-.118l1.006,1.08a4.774,4.774,0,0,0-.562.947,23.843,23.843,0,0,1-1.909,3.774,33.583,33.583,0,0,1,4.617,4.277c-.518.563-1.347,1.48-1.524,1.687a20.225,20.225,0,0,0-4.2-4.41,17.335,17.335,0,0,1-5.919,4.617,5.336,5.336,0,0,0-1.406-1.731,12.617,12.617,0,0,0,5.239-3.463,12.523,12.523,0,0,0,2.8-4.78Z"/><path d="M282.553,6.949V5.144h12.579V6.949H290.16a6.786,6.786,0,0,1-1.672,4.795,7.47,7.47,0,0,1-3.285,2.1,6.674,6.674,0,0,0-1.495-1.569c4-1.11,4.41-3.552,4.455-5.328Zm10.552-5.683v1.82h-8.451V1.266Z"/><path d="M301.365,1.089c.178.015.3.015.3.148s-.177.222-.3.281V8.681h-2.072V1Zm6.867-.266c.222.015.3.059.3.133,0,.192-.192.252-.3.3V6.046c0,4.943-2.886,6.734-5.742,7.932a3.659,3.659,0,0,0-1.3-1.613c4.839-1.584,4.943-4.677,4.943-6.3V.719Z"/><path d="M325.5,6.254v2.1H312.724v-2.1Z"/><path d="M336.5.748l2.1.118c.133.015.237.044.237.148,0,.163-.163.237-.237.266V3.8h2.694V5.751H338.6c0,3.108-.755,4.321-1.125,4.943a7.9,7.9,0,0,1-3.833,3.241,5.324,5.324,0,0,0-1.539-1.569,6.4,6.4,0,0,0,3.789-3.049,8.458,8.458,0,0,0,.607-3.567h-3.063V9.243h-2.028V5.751h-2.871V3.8h2.871V.837l1.953.118c.133.015.311.015.311.178,0,.1-.1.163-.237.237V3.8H336.5Z"/><path d="M357.154,6.254v2.1H344.383v-2.1Z"/><path d="M367.157.9c.192.015.3.03.3.163,0,.089-.089.222-.3.266,0,.37-.015.932-.059,2.175h4.795c-.177,7.873-.311,10.345-5.046,10.093a7.044,7.044,0,0,0-.518-2.1,4.617,4.617,0,0,0,1.213.148c1.095,0,1.569-.207,1.88-1.658a31.488,31.488,0,0,0,.37-4.6h-2.856a10.434,10.434,0,0,1-5.712,8.361,5.139,5.139,0,0,0-1.435-1.509c3.966-2.027,4.736-4.529,5.121-6.852h-4.662V3.5h4.824a19.17,19.17,0,0,0-.1-2.767Z"/><path d="M376.316,3.486V1.607h7.518a4.011,4.011,0,0,0,1.021-.118l1.006,1.08a4.824,4.824,0,0,0-.562.947A23.8,23.8,0,0,1,383.39,7.29a33.583,33.583,0,0,1,4.617,4.277c-.518.563-1.347,1.48-1.524,1.687a20.225,20.225,0,0,0-4.2-4.41,17.338,17.338,0,0,1-5.92,4.617,5.328,5.328,0,0,0-1.406-1.731,12.62,12.62,0,0,0,5.239-3.463,12.522,12.522,0,0,0,2.8-4.78Z"/><rect width="388" height="14" style="fill:none"/></svg>